<!DOCTYPE svg PUBLIC "-//W3C//DTD SVG 20010904//EN" "http://www.w3.org/TR/2001/REC-SVG-20010904/DTD/svg10.dtd">
<svg version="1.0" xmlns="http://www.w3.org/2000/svg" width="250px" height="250px" viewBox="0 0 2500 2500" preserveAspectRatio="xMidYMid meet">
<g id="layer1" fill="#777c83" stroke="none">
 <path d="M762 2218 c-7 -7 -12 -9 -12 -5 0 4 -9 3 -20 -3 -11 -6 -18 -15 -15 -21 4 -5 15 -4 28 3 12 7 27 12 32 13 13 0 19 19 8 22 -5 2 -14 -2 -21 -9z"/>
 <path d="M855 2211 c-7 -12 12 -24 25 -16 11 7 4 25 -10 25 -5 0 -11 -4 -15 -9z"/>
 <path d="M965 2170 c-9 -14 45 -34 58 -21 7 7 1 14 -17 21 -33 12 -33 12 -41 0z"/>
 <path d="M656 2138 c-21 -34 -28 -65 -16 -73 5 -3 15 6 20 22 6 15 14 36 20 45 15 27 -7 32 -24 6z"/>
 <path d="M1105 2120 c-9 -14 45 -34 58 -21 7 7 1 14 -17 21 -33 12 -33 12 -41 0z"/>
 <path d="M1245 2070 c-9 -14 45 -34 58 -21 7 7 1 14 -17 21 -33 12 -33 12 -41 0z"/>
 <path d="M805 2020 c-8 -13 29 -34 95 -55 30 -10 63 -27 72 -39 13 -16 20 -18 28 -10 27 27 5 46 -90 80 -110 39 -97 36 -105 24z"/>
 <path d="M1385 2020 c-9 -14 45 -34 58 -21 7 7 1 14 -17 21 -33 12 -33 12 -41 0z"/>
 <path d="M590 1965 c-7 -19 -7 -32 -1 -38 7 -7 14 -1 21 18 7 19 7 32 1 38 -7 7 -14 1 -21 -18z"/>
 <path d="M1505 1979 c-9 -14 65 -43 78 -30 7 7 6 12 -4 15 -8 3 -26 10 -41 15 -18 7 -29 7 -33 0z"/>
 <path d="M1636 1932 c-3 -6 1 -15 8 -21 8 -7 17 -8 20 -3 3 6 -1 15 -8 21 -8 7 -17 8 -20 3z"/>
 <path d="M816 1911 c-4 -5 -2 -12 3 -15 5 -4 12 -2 15 3 4 5 2 12 -3 15 -5 4 -12 2 -15 -3z"/>
 <path d="M892 1903 c-5 -10 -26 -67 -47 -128 -21 -60 -44 -117 -52 -127 -21 -24 4 -35 27 -12 14 16 90 210 102 263 5 21 -19 25 -30 4z"/>
 <path d="M1699 1904 c-9 -16 -3 -39 8 -37 12 3 97 -111 162 -214 18 -29 37 -50 42 -47 11 6 13 3 -68 126 -72 109 -137 186 -144 172z"/>
 <path d="M1135 1890 c-7 -11 15 -23 36 -19 25 4 67 -19 90 -50 48 -66 8 -229 -68 -273 -40 -24 -34 -44 6 -23 48 24 99 99 106 155 1 8 6 23 10 33 21 49 -32 167 -75 167 -10 0 -21 4 -24 8 -7 12 -74 13 -81 2z"/>
 <path d="M540 1825 c-7 -19 -7 -32 -1 -38 7 -7 14 -1 21 18 7 19 7 32 1 38 -7 7 -14 1 -21 -18z"/>
 <path d="M1674 1836 c-8 -21 3 -49 16 -41 5 3 10 15 10 25 0 25 -18 36 -26 16z"/>
 <path d="M1046 1821 c-4 -5 -2 -12 3 -15 5 -4 12 -2 15 3 4 5 2 12 -3 15 -5 4 -12 2 -15 -3z"/>
 <path d="M1116 1789 c-25 -40 -46 -97 -40 -112 3 -8 1 -18 -5 -22 -17 -10 -13 -27 12 -59 15 -18 28 -26 36 -22 9 6 9 12 -2 24 -16 18 -25 61 -16 77 4 6 12 28 19 50 7 22 17 46 23 53 7 9 7 16 0 23 -8 8 -16 4 -27 -12z"/>
 <path d="M1454 1789 c-9 -16 3 -23 85 -53 43 -15 78 -23 83 -18 13 13 -9 27 -89 55 -48 17 -74 23 -79 16z"/>
 <path d="M715 1770 c-8 -13 44 -45 55 -34 20 21 14 36 -17 40 -18 2 -35 -1 -38 -6z"/>
 <path d="M1695 1770 c-4 -6 -3 -16 3 -22 6 -6 12 -6 17 2 4 6 3 16 -3 22 -6 6 -12 6 -17 -2z"/>
 <path d="M1416 1751 c-4 -5 -2 -12 3 -15 5 -4 12 -2 15 3 4 5 2 12 -3 15 -5 4 -12 2 -15 -3z"/>
 <path d="M1006 1731 c-4 -5 -2 -12 3 -15 5 -4 12 -2 15 3 4 5 2 12 -3 15 -5 4 -12 2 -15 -3z"/>
 <path d="M1640 1720 c-23 -23 -23 -51 -2 -58 7 -2 16 5 19 17 4 16 9 19 18 11 9 -8 15 -8 20 0 9 14 -4 32 -17 24 -6 -4 -8 -2 -4 4 13 21 -14 22 -34 2z"/>
 <path d="M1205 1720 c-4 -6 -3 -16 3 -22 6 -6 12 -6 17 2 4 6 3 16 -3 22 -6 6 -12 6 -17 -2z"/>
 <path d="M696 1712 c-3 -6 1 -15 8 -21 8 -7 17 -8 20 -3 3 6 -1 15 -8 21 -8 7 -17 8 -20 3z"/>
 <path d="M1475 1710 c-4 -6 -3 -16 3 -22 6 -6 12 -6 17 2 4 6 3 16 -3 22 -6 6 -12 6 -17 -2z"/>
 <path d="M490 1685 c-7 -19 -7 -32 -1 -38 7 -7 14 -1 21 18 7 19 7 32 1 38 -7 7 -14 1 -21 -18z"/>
 <path d="M736 1682 c-3 -6 1 -15 8 -21 8 -7 17 -8 20 -3 3 6 -1 15 -8 21 -8 7 -17 8 -20 3z"/>
 <path d="M1552 1677 c-22 -26 -102 -266 -91 -273 16 -10 21 -1 71 139 43 119 50 171 20 134z"/>
 <path d="M1654 1655 c-4 -9 -13 -14 -21 -11 -8 4 -17 -4 -23 -20 -13 -33 -3 -49 17 -32 9 7 19 11 22 10 11 -7 31 57 21 63 -6 4 -13 -1 -16 -10z"/>
 <path d="M1161 1616 c-7 -8 -8 -17 -3 -20 6 -3 15 1 21 8 7 8 8 17 3 20 -6 3 -15 -1 -21 -8z"/>
 <path d="M1918 1584 c-3 -3 10 -36 30 -75 21 -40 39 -66 45 -60 5 5 -4 34 -22 69 -30 60 -43 76 -53 66z"/>
 <path d="M1624 1566 c-8 -21 3 -49 16 -41 5 3 10 15 10 25 0 25 -18 36 -26 16z"/>
 <path d="M440 1545 c-7 -19 -7 -32 -1 -38 7 -7 14 -1 21 18 7 19 7 32 1 38 -7 7 -14 1 -21 -18z"/>
 <path d="M1426 1561 c-4 -5 -2 -12 3 -15 5 -4 12 -2 15 3 4 5 2 12 -3 15 -5 4 -12 2 -15 -3z"/>
 <path d="M619 1534 c-9 -11 -8 -15 2 -19 182 -64 205 -69 197 -43 -2 6 -45 25 -96 43 -76 28 -93 31 -103 19z"/>
 <path d="M1345 1530 c-16 -18 -10 -34 9 -22 6 4 20 7 31 7 28 0 26 30 -2 31 -12 1 -29 -6 -38 -16z"/>
 <path d="M1604 1508 c-8 -12 6 -29 17 -22 5 3 19 -6 30 -20 11 -15 25 -23 31 -20 6 4 8 2 4 -4 -3 -6 -1 -14 5 -17 5 -4 8 -13 5 -20 -5 -15 17 -38 27 -28 4 3 2 12 -5 20 -7 9 0 7 20 -4 18 -10 31 -25 29 -33 -1 -8 5 -15 13 -15 8 0 14 6 13 12 -2 7 0 12 5 10 4 -1 9 2 12 6 3 5 -22 23 -55 40 -35 19 -69 46 -83 66 -21 33 -57 48 -68 29z"/>
 <path d="M1636 1452 c-3 -5 5 -19 18 -31 13 -13 26 -18 30 -13 3 5 -5 19 -18 31 -13 13 -26 18 -30 13z"/>
 <path d="M801 1436 c-9 -10 -9 -16 -1 -21 17 -10 37 12 24 25 -8 8 -15 6 -23 -4z"/>
 <path d="M1396 1442 c-3 -6 1 -15 8 -21 8 -7 17 -8 20 -3 3 6 -1 15 -8 21 -8 7 -17 8 -20 3z"/>
 <path d="M390 1405 c-7 -19 -7 -32 -1 -38 7 -7 14 -1 21 18 7 19 7 32 1 38 -7 7 -14 1 -21 -18z"/>
 <path d="M723 1418 c-19 -24 -92 -243 -84 -251 4 -4 13 -2 19 5 19 24 92 242 84 250 -5 5 -13 3 -19 -4z"/>
 <path d="M1996 1421 c-4 -6 -1 -21 6 -33 7 -13 11 -28 10 -35 -3 -15 15 -26 23 -13 3 5 3 16 -2 23 -4 6 -9 21 -10 32 -4 26 -19 40 -27 26z"/>
 <path d="M997 1414 c-9 -9 12 -34 28 -34 19 0 75 -49 75 -65 0 -7 7 -18 15 -25 24 -20 29 12 8 51 -24 42 -108 91 -126 73z"/>
 <path d="M1855 1360 c-6 -10 -5 -12 18 -14 6 0 12 -10 12 -20 0 -10 10 -23 23 -27 26 -10 46 -3 37 12 -3 5 1 6 10 3 9 -4 14 -12 11 -20 -3 -7 2 -18 11 -26 9 -7 22 -28 30 -47 10 -23 18 -30 25 -23 7 7 6 16 -1 31 -9 17 -9 20 3 15 31 -12 23 16 -15 50 -40 37 -76 56 -114 60 -12 1 -26 5 -32 9 -6 4 -14 3 -18 -3z m150 -80 c10 -11 16 -20 13 -20 -3 0 -13 9 -23 20 -10 11 -16 20 -13 20 3 0 13 -9 23 -20z"/>
 <path d="M616 1351 c-4 -5 -2 -12 3 -15 5 -4 12 -2 15 3 4 5 2 12 -3 15 -5 4 -12 2 -15 -3z"/>
 <path d="M876 1341 c-4 -5 -2 -12 3 -15 5 -4 12 -2 15 3 4 5 2 12 -3 15 -5 4 -12 2 -15 -3z"/>
 <path d="M957 1322 c-27 -29 -59 -113 -62 -159 -3 -37 0 -45 26 -64 39 -27 59 -14 25 17 -21 20 -24 30 -19 57 7 39 41 127 54 144 16 19 -7 24 -24 5z"/>
 <path d="M544 1289 c-9 -15 38 -51 50 -39 6 6 2 17 -9 30 -21 23 -31 25 -41 9z"/>
 <path d="M340 1265 c-7 -19 -7 -32 -1 -38 7 -7 14 -1 21 18 7 19 7 32 1 38 -7 7 -14 1 -21 -18z"/>
 <path d="M1365 1281 c-3 -6 12 -22 34 -35 22 -14 45 -36 52 -48 14 -26 15 -103 1 -138 -19 -51 -23 -68 -13 -75 6 -3 20 14 33 37 29 56 32 160 5 200 -30 43 -99 80 -112 59z"/>
 <path d="M506 1261 c-15 -16 -14 -19 8 -40 13 -12 27 -18 30 -13 8 13 -18 34 -30 24 -5 -4 -1 3 9 15 22 26 6 40 -17 14z"/>
 <path d="M1035 1250 c-4 -6 -3 -16 3 -22 6 -6 12 -6 17 2 4 6 3 16 -3 22 -6 6 -12 6 -17 -2z"/>
 <path d="M1113 1218 c-5 -7 -18 -35 -27 -61 -10 -26 -29 -61 -42 -77 -37 -44 -11 -45 28 -1 41 45 76 127 61 142 -7 7 -13 6 -20 -3z"/>
 <path d="M1306 1187 c-24 -31 -57 -109 -54 -125 1 -4 -2 -15 -7 -25 -8 -18 11 -51 25 -42 4 2 10 27 14 54 3 27 19 74 35 105 32 64 25 83 -13 33z"/>
 <path d="M1210 1181 c-6 -12 -6 -22 -1 -26 6 -3 15 3 21 14 6 12 6 22 1 26 -6 3 -15 -3 -21 -14z"/>
 <path d="M606 1162 c-3 -6 1 -15 8 -21 8 -7 17 -8 20 -3 3 6 -1 15 -8 21 -8 7 -17 8 -20 3z"/>
 <path d="M1662 1148 c-7 -7 -12 -8 -12 -4 0 5 -7 3 -15 -4 -8 -7 -12 -16 -9 -22 3 -5 12 -4 21 4 19 15 78 11 116 -9 16 -8 35 -29 43 -48 16 -40 32 -52 40 -31 10 25 -29 88 -66 108 -39 21 -100 24 -118 6z"/>
 <path d="M290 1125 c-7 -19 -7 -32 -1 -38 7 -7 14 -1 21 18 7 19 7 32 1 38 -7 7 -14 1 -21 -18z"/>
 <path d="M836 1102 c-3 -5 8 -21 23 -36 16 -15 31 -23 35 -18 3 5 -8 21 -23 36 -16 15 -31 23 -35 18z"/>
 <path d="M1581 1086 c-7 -8 -8 -17 -3 -20 6 -3 15 1 21 8 7 8 8 17 3 20 -6 3 -15 -1 -21 -8z"/>
 <path d="M1980 1075 c-7 -19 -7 -32 -1 -38 7 -7 14 -1 21 18 7 19 7 32 1 38 -7 7 -14 1 -21 -18z"/>
 <path d="M1665 1070 c-13 -14 -15 -24 -8 -31 7 -7 15 -2 26 15 21 31 6 43 -18 16z"/>
 <path d="M527 1034 c-9 -9 12 -34 28 -34 19 0 75 -49 75 -65 0 -7 7 -18 15 -25 24 -20 29 12 8 51 -24 42 -108 91 -126 73z"/>
 <path d="M1625 996 c-10 -15 -15 -29 -11 -33 3 -3 1 -12 -5 -19 -12 -15 -3 -37 13 -32 15 5 39 91 29 101 -5 5 -17 -2 -26 -17z"/>
 <path d="M240 985 c-7 -19 -7 -32 -1 -38 7 -7 14 -1 21 18 7 19 7 32 1 38 -7 7 -14 1 -21 -18z"/>
 <path d="M1822 978 c-7 -7 -12 -19 -12 -27 -1 -24 -39 -103 -61 -127 -12 -13 -16 -24 -11 -28 16 -10 80 73 98 126 17 51 9 79 -14 56z"/>
 <path d="M1196 971 c-4 -5 -2 -12 3 -15 5 -4 12 -2 15 3 4 5 2 12 -3 15 -5 4 -12 2 -15 -3z"/>
 <path d="M1396 951 c-15 -16 -23 -31 -18 -35 5 -3 21 8 36 23 15 16 23 31 18 35 -5 3 -21 -8 -36 -23z"/>
 <path d="M501 956 c-7 -8 -8 -17 -3 -20 6 -3 15 1 21 8 7 8 8 17 3 20 -6 3 -15 -1 -21 -8z"/>
 <path d="M1930 935 c-7 -19 -7 -32 -1 -38 7 -7 14 -1 21 18 7 19 7 32 1 38 -7 7 -14 1 -21 -18z"/>
 <path d="M1266 921 c-4 -5 -2 -12 3 -15 5 -4 12 -2 15 3 4 5 2 12 -3 15 -5 4 -12 2 -15 -3z"/>
 <path d="M466 913 c-12 -13 -37 -76 -31 -81 3 -3 0 -11 -6 -18 -12 -15 -3 -37 13 -32 14 5 49 121 39 131 -4 4 -11 4 -15 0z"/>
 <path d="M895 901 c-3 -6 12 -22 34 -35 22 -14 42 -30 46 -36 8 -13 25 -3 25 15 0 27 -92 76 -105 56z"/>
 <path d="M826 891 c-4 -5 -2 -12 3 -15 5 -4 12 -2 15 3 4 5 2 12 -3 15 -5 4 -12 2 -15 -3z"/>
 <path d="M1706 891 c-4 -5 -2 -12 3 -15 5 -4 12 -2 15 3 4 5 2 12 -3 15 -5 4 -12 2 -15 -3z"/>
 <path d="M366 881 c-4 -5 -2 -12 3 -15 5 -4 12 -2 15 3 4 5 2 12 -3 15 -5 4 -12 2 -15 -3z"/>
 <path d="M1617 873 c-12 -11 -8 -22 13 -33 30 -16 45 -2 24 21 -18 20 -27 23 -37 12z"/>
 <path d="M190 845 c-7 -19 -7 -32 -1 -38 7 -7 14 -1 21 18 7 19 7 32 1 38 -7 7 -14 1 -21 -18z"/>
 <path d="M641 846 c-6 -7 -11 -18 -9 -22 1 -5 -8 -31 -20 -58 -24 -52 -16 -84 10 -44 28 43 52 118 41 129 -7 7 -14 5 -22 -5z"/>
 <path d="M556 831 c-4 -5 -2 -12 3 -15 5 -4 12 -2 15 3 4 5 2 12 -3 15 -5 4 -12 2 -15 -3z"/>
 <path d="M751 826 c-7 -8 -8 -17 -3 -20 6 -3 15 1 21 8 7 8 8 17 3 20 -6 3 -15 -1 -21 -8z"/>
 <path d="M832 807 c-17 -21 -43 -78 -46 -101 -2 -11 -7 -29 -11 -40 -8 -19 3 -46 20 -49 5 -1 13 21 17 49 4 28 16 72 27 97 19 44 15 71 -7 44z"/>
 <path d="M1880 795 c-7 -19 -7 -32 -1 -38 7 -7 14 -1 21 18 7 19 7 32 1 38 -7 7 -14 1 -21 -18z"/>
 <path d="M1144 795 c-10 -8 -14 -15 -9 -16 6 -1 15 -2 20 -3 6 -1 47 -14 93 -30 71 -24 83 -31 81 -50 -2 -37 0 -40 21 -21 25 23 26 51 1 64 -14 8 -180 71 -186 71 -1 0 -10 -7 -21 -15z"/>
 <path d="M994 776 c-3 -9 -4 -26 -1 -37 3 -12 2 -29 -3 -38 -4 -9 -16 -36 -26 -61 -10 -25 -31 -57 -47 -72 -15 -14 -23 -29 -18 -32 25 -16 111 96 116 152 1 15 6 35 10 44 9 22 3 50 -12 56 -7 2 -16 -4 -19 -12z"/>
 <path d="M165 770 c-4 -6 -3 -16 3 -22 6 -6 12 -6 17 2 4 6 3 16 -3 22 -6 6 -12 6 -17 -2z"/>
 <path d="M720 760 c-11 -21 -5 -44 9 -35 13 7 20 44 11 50 -5 3 -14 -4 -20 -15z"/>
 <path d="M424 758 c-9 -15 47 -61 60 -48 5 5 0 19 -15 34 -27 29 -35 31 -45 14z"/>
 <path d="M355 750 c-3 -5 -2 -18 4 -27 15 -29 58 -65 65 -55 3 5 -6 20 -19 32 -14 13 -25 29 -25 36 0 17 -17 27 -25 14z"/>
 <path d="M705 700 c-4 -6 -3 -16 3 -22 6 -6 12 -6 17 2 4 6 3 16 -3 22 -6 6 -12 6 -17 -2z"/>
 <path d="M1261 687 c-22 -27 -100 -262 -91 -271 16 -16 24 0 73 141 42 120 48 166 18 130z"/>
 <path d="M1456 691 c-3 -5 0 -13 7 -19 14 -11 84 -35 109 -37 9 -1 23 -7 32 -14 20 -17 41 -4 25 15 -7 8 -17 13 -23 11 -6 -3 -18 1 -26 8 -14 11 -98 45 -112 45 -4 0 -9 -4 -12 -9z"/>
 <path d="M175 680 c-4 -6 -3 -16 3 -22 6 -6 12 -6 17 2 4 6 3 16 -3 22 -6 6 -12 6 -17 -2z"/>
 <path d="M1830 655 c-7 -19 -7 -32 -1 -38 7 -7 14 -1 21 18 7 19 7 32 1 38 -7 7 -14 1 -21 -18z"/>
 <path d="M1426 661 c-4 -5 -2 -12 3 -15 5 -4 12 -2 15 3 4 5 2 12 -3 15 -5 4 -12 2 -15 -3z"/>
 <path d="M871 626 c-7 -8 -8 -17 -3 -20 6 -3 15 1 21 8 7 8 8 17 3 20 -6 3 -15 -1 -21 -8z"/>
 <path d="M1466 621 c-4 -5 -2 -12 3 -15 5 -4 12 -2 15 3 4 5 2 12 -3 15 -5 4 -12 2 -15 -3z"/>
 <path d="M226 612 c-3 -6 1 -15 8 -21 8 -7 17 -8 20 -3 3 6 -1 15 -8 21 -8 7 -17 8 -20 3z"/>
 <path d="M1146 601 c-4 -5 -2 -12 3 -15 5 -4 12 -2 15 3 4 5 2 12 -3 15 -5 4 -12 2 -15 -3z"/>
 <path d="M275 580 c-9 -14 45 -34 58 -21 7 7 1 14 -17 21 -33 12 -33 12 -41 0z"/>
 <path d="M1553 568 c-14 -18 -34 -80 -28 -86 3 -3 -1 -12 -9 -21 -20 -23 -47 -114 -38 -123 5 -5 13 -3 19 4 12 15 36 85 38 110 1 9 6 22 12 30 17 22 34 81 25 90 -5 5 -13 3 -19 -4z"/>
 <path d="M1606 571 c-4 -5 -2 -12 3 -15 5 -4 12 -2 15 3 4 5 2 12 -3 15 -5 4 -12 2 -15 -3z"/>
 <path d="M1055 540 c-18 -19 -8 -35 12 -19 10 9 17 8 28 -1 17 -14 42 0 31 18 -11 18 -55 20 -71 2z"/>
 <path d="M796 541 c-4 -5 -2 -12 3 -15 5 -4 12 -2 15 3 4 5 2 12 -3 15 -5 4 -12 2 -15 -3z"/>
 <path d="M415 530 c-9 -14 45 -34 58 -21 7 7 1 14 -17 21 -33 12 -33 12 -41 0z"/>
 <path d="M1780 515 c-7 -19 -7 -32 -1 -38 7 -7 14 -1 21 18 7 19 7 32 1 38 -7 7 -14 1 -21 -18z"/>
 <path d="M1446 501 c-4 -5 -2 -12 3 -15 5 -4 12 -2 15 3 4 5 2 12 -3 15 -5 4 -12 2 -15 -3z"/>
 <path d="M555 480 c-9 -14 45 -34 58 -21 7 7 1 14 -17 21 -33 12 -33 12 -41 0z"/>
 <path d="M1066 482 c-3 -6 1 -15 8 -21 8 -7 17 -8 20 -3 3 6 -1 15 -8 21 -8 7 -17 8 -20 3z"/>
 <path d="M1116 442 c-3 -6 1 -15 8 -21 8 -7 17 -8 20 -3 3 6 -1 15 -8 21 -8 7 -17 8 -20 3z"/>
 <path d="M1375 440 c-3 -5 6 -17 20 -26 20 -13 29 -14 38 -5 9 10 8 16 -7 27 -23 16 -42 18 -51 4z"/>
 <path d="M695 430 c-9 -14 45 -34 58 -21 7 7 1 14 -17 21 -33 12 -33 12 -41 0z"/>
 <path d="M1730 375 c-7 -19 -7 -32 -1 -38 7 -7 14 -1 21 18 7 19 7 32 1 38 -7 7 -14 1 -21 -18z"/>
 <path d="M835 380 c-9 -14 45 -34 58 -21 7 7 1 14 -17 21 -33 12 -33 12 -41 0z"/>
 <path d="M1356 382 c-3 -6 1 -15 8 -21 8 -7 17 -8 20 -3 3 6 -1 15 -8 21 -8 7 -17 8 -20 3z"/>
 <path d="M1406 342 c-3 -6 1 -15 8 -21 8 -7 17 -8 20 -3 3 6 -1 15 -8 21 -8 7 -17 8 -20 3z"/>
 <path d="M975 330 c-9 -14 45 -34 58 -21 7 7 1 14 -17 21 -33 12 -33 12 -41 0z"/>
 <path d="M1445 311 c-7 -12 12 -24 25 -16 11 7 4 25 -10 25 -5 0 -11 -4 -15 -9z"/>
 <path d="M1115 280 c-9 -14 45 -34 58 -21 7 7 1 14 -17 21 -33 12 -33 12 -41 0z"/>
 <path d="M1677 231 c-19 -38 -4 -51 19 -16 12 18 14 29 7 36 -7 7 -15 1 -26 -20z"/>
 <path d="M1255 230 c-9 -14 45 -34 58 -21 7 7 1 14 -17 21 -33 12 -33 12 -41 0z"/>
 <path d="M1395 180 c-9 -14 45 -34 58 -21 7 7 1 14 -17 21 -33 12 -33 12 -41 0z"/>
 </g>
<g id="layer2" fill="#bdbfc3" stroke="none">
 <path d="M785 2220 c-8 -12 20 -24 39 -17 8 3 17 3 21 -1 4 -4 10 -7 13 -8 4 0 15 -4 24 -8 9 -4 22 -8 30 -10 7 -1 18 -5 25 -9 6 -4 14 -3 18 3 3 5 4 11 1 11 -3 1 -9 2 -13 3 -5 1 -18 7 -31 14 -12 7 -27 10 -32 7 -5 -3 -11 -1 -15 5 -4 6 -10 8 -15 5 -5 -3 -11 -1 -15 5 -8 13 -42 13 -50 0z"/>
 <path d="M735 2208 c-32 -17 -65 -50 -59 -60 3 -5 18 2 33 14 16 13 37 28 47 34 24 14 4 25 -21 12z"/>
 <path d="M985 2160 c-3 -5 -4 -11 -1 -11 13 -3 22 -6 38 -13 9 -4 22 -8 30 -10 7 -1 18 -5 25 -9 6 -4 14 -3 18 3 3 5 4 11 1 11 -3 1 -9 2 -13 3 -5 1 -19 8 -31 15 -13 7 -26 10 -29 7 -4 -3 -12 -1 -19 5 -8 7 -14 7 -19 -1z"/>
 <path d="M656 2131 c-4 -5 -2 -12 3 -15 5 -4 12 -2 15 3 4 5 2 12 -3 15 -5 4 -12 2 -15 -3z"/>
 <path d="M1125 2110 c-3 -5 -4 -11 -1 -11 13 -3 22 -6 38 -13 9 -4 22 -8 30 -10 7 -1 18 -5 25 -9 6 -4 14 -3 18 3 3 5 4 11 1 11 -3 1 -9 2 -13 3 -5 1 -19 8 -31 15 -13 7 -26 10 -29 7 -4 -3 -12 -1 -19 5 -8 7 -14 7 -19 -1z"/>
 <path d="M1265 2060 c-3 -5 -4 -11 -1 -11 13 -3 22 -6 38 -13 9 -4 22 -8 30 -10 7 -1 18 -5 25 -9 6 -4 14 -3 18 3 3 5 4 11 1 11 -3 1 -9 2 -13 3 -5 1 -19 8 -31 15 -13 7 -26 10 -29 7 -4 -3 -12 -1 -19 5 -8 7 -14 7 -19 -1z"/>
 <path d="M614 2024 c-11 -25 -12 -40 -5 -47 7 -7 12 -6 15 4 3 8 10 26 15 41 16 43 -7 45 -25 2z"/>
 <path d="M780 2020 c-27 -27 -16 -45 14 -25 20 14 30 12 107 -16 46 -17 89 -35 96 -40 14 -12 30 8 17 21 -7 7 -201 80 -211 80 -2 0 -12 -9 -23 -20z"/>
 <path d="M1405 2010 c-3 -5 -4 -11 -1 -11 13 -3 22 -6 38 -13 9 -4 22 -8 30 -10 7 -1 18 -5 25 -9 6 -4 14 -3 18 3 3 5 4 11 1 11 -3 1 -9 2 -13 3 -5 1 -19 8 -31 15 -13 7 -26 10 -29 7 -4 -3 -12 -1 -19 5 -8 7 -14 7 -19 -1z"/>
 <path d="M756 1971 c-6 -10 10 -25 36 -34 31 -11 30 12 -1 28 -16 8 -32 11 -35 6z"/>
 <path d="M1545 1960 c-3 -5 -4 -11 -1 -11 17 -4 24 -7 58 -21 21 -10 43 -29 53 -48 9 -17 20 -28 25 -25 26 16 -47 97 -89 100 -9 0 -22 4 -28 8 -6 4 -14 3 -18 -3z"/>
 <path d="M805 1896 c-8 -20 -17 -46 -19 -58 -3 -13 -5 -24 -7 -25 -1 -2 -2 -9 -3 -15 0 -8 -15 -13 -34 -13 -42 0 -90 -48 -71 -71 13 -16 30 -9 23 10 -7 18 22 39 45 33 11 -3 28 1 38 9 10 7 14 14 9 14 -5 0 -3 7 4 15 7 8 9 15 5 15 -4 0 -2 6 4 13 6 8 17 32 25 55 19 52 2 68 -19 18z"/>
 <path d="M974 1919 c-10 -17 13 -36 27 -22 12 12 4 33 -11 33 -5 0 -12 -5 -16 -11z"/>
 <path d="M564 1884 c-11 -25 -12 -40 -5 -47 7 -7 12 -6 15 4 3 8 10 26 15 41 16 43 -7 45 -25 2z"/>
 <path d="M912 1907 c-5 -6 -26 -59 -47 -117 -20 -58 -43 -115 -51 -127 -9 -15 -10 -24 -3 -29 18 -10 26 5 71 131 24 66 49 120 55 120 22 0 25 13 5 24 -15 8 -23 7 -30 -2z"/>
 <path d="M1165 1901 c-7 -12 12 -24 24 -17 5 3 14 -1 21 -9 7 -8 21 -15 32 -15 10 0 21 -8 25 -17 3 -10 11 -24 17 -32 6 -7 12 -25 13 -40 5 -39 12 -53 23 -46 13 8 13 52 0 60 -5 3 -7 11 -4 18 10 28 -81 108 -106 92 -5 -3 -11 -1 -15 5 -8 13 -22 13 -30 1z"/>
 <path d="M1126 1891 c-4 -5 -2 -12 3 -15 5 -4 12 -2 15 3 4 5 2 12 -3 15 -5 4 -12 2 -15 -3z"/>
 <path d="M1700 1895 c-1 -5 -1 -39 -1 -75 1 -53 -5 -81 -34 -150 -19 -46 -35 -99 -35 -118 0 -90 89 -162 265 -213 57 -17 87 -32 112 -57 27 -27 34 -30 39 -17 12 31 -40 179 -104 295 -80 146 -239 365 -242 335z"/>
 <path d="M1067 1852 c-28 -30 -38 -51 -22 -49 16 3 66 65 57 71 -5 3 -21 -7 -35 -22z"/>
 <path d="M1187 1824 c-3 -5 3 -20 12 -33 11 -14 21 -19 25 -13 3 5 -2 20 -12 33 -11 12 -21 18 -25 13z"/>
 <path d="M1128 1787 c-25 -38 -39 -90 -28 -101 6 -6 12 -3 16 10 4 10 15 38 25 61 19 46 10 67 -13 30z"/>
 <path d="M1425 1790 c-7 -11 22 -26 31 -17 6 6 94 -23 150 -49 36 -17 67 -12 66 11 0 6 4 15 10 22 5 7 7 17 3 23 -9 15 -27 1 -21 -16 10 -26 -20 -26 -90 1 -79 30 -140 40 -149 25z"/>
 <path d="M514 1744 c-11 -25 -12 -40 -5 -47 7 -7 12 -6 15 4 3 8 10 26 15 41 16 43 -7 45 -25 2z"/>
 <path d="M1019 1776 c-1 -3 -2 -9 -3 -13 -1 -5 -5 -14 -9 -20 -5 -7 -5 -13 -1 -13 3 0 1 -7 -6 -15 -6 -8 -9 -19 -5 -25 9 -14 28 -1 21 15 -2 7 1 18 7 24 6 6 7 11 3 11 -5 0 -3 6 3 14 8 10 9 16 1 21 -5 3 -11 4 -11 1z"/>
 <path d="M1419 1766 c-7 -37 -1 -51 28 -63 22 -8 34 -9 38 -2 4 5 -7 15 -24 22 -18 7 -29 17 -27 24 3 7 1 15 -4 18 -6 4 -10 4 -11 1z"/>
 <path d="M1205 1740 c-4 -6 -3 -16 3 -22 6 -6 12 -6 17 2 4 6 3 16 -3 22 -6 6 -12 6 -17 -2z"/>
 <path d="M1289 1703 c-1 -5 -1 -11 0 -15 0 -4 -4 -19 -9 -32 -6 -16 -6 -27 1 -31 11 -8 42 62 34 75 -7 12 -25 13 -26 3z"/>
 <path d="M716 1692 c-3 -6 1 -15 8 -21 8 -7 17 -8 20 -3 3 6 -1 15 -8 21 -8 7 -17 8 -20 3z"/>
 <path d="M1181 1660 c-10 -22 -16 -42 -11 -45 10 -6 26 13 39 47 17 44 -6 43 -28 -2z"/>
 <path d="M1078 1675 c-9 -9 7 -60 18 -57 13 3 11 55 -2 59 -5 2 -13 1 -16 -2z"/>
 <path d="M1568 1669 c-8 -5 -34 -64 -58 -131 -24 -68 -45 -125 -47 -128 -2 -2 -12 1 -23 8 -27 17 -35 -3 -9 -22 38 -26 54 -5 100 129 43 123 45 126 71 121 16 -3 31 0 38 9 7 8 11 15 9 16 -34 5 -69 5 -81 -2z"/>
 <path d="M756 1662 c-3 -6 1 -15 8 -21 8 -7 17 -8 20 -3 3 6 -1 15 -8 21 -8 7 -17 8 -20 3z"/>
 <path d="M1450 1645 c-6 -15 -12 -37 -15 -49 -2 -11 -4 -22 -6 -23 -1 -3 -4 -11 -8 -28 0 -3 -10 -1 -20 4 -21 12 -52 -11 -31 -24 5 -3 10 -3 10 1 0 3 7 1 15 -6 12 -10 18 -10 30 0 8 6 14 15 13 18 0 4 1 10 2 15 1 4 3 10 5 15 1 4 10 24 19 46 12 26 14 42 7 49 -7 7 -14 1 -21 -18z"/>
 <path d="M464 1604 c-11 -25 -12 -40 -5 -47 7 -7 12 -6 15 4 3 8 10 26 15 41 16 43 -7 45 -25 2z"/>
 <path d="M995 1620 c-8 -13 13 -52 25 -45 9 6 2 43 -11 50 -4 3 -10 1 -14 -5z"/>
 <path d="M1606 1621 c-4 -5 -2 -12 3 -15 5 -4 12 -2 15 3 4 5 2 12 -3 15 -5 4 -12 2 -15 -3z"/>
 <path d="M1242 1586 c-26 -45 -11 -57 18 -15 15 20 19 34 13 40 -7 7 -17 -2 -31 -25z"/>
 <path d="M1106 1601 c-3 -5 1 -14 8 -20 16 -13 32 2 21 19 -8 12 -22 13 -29 1z"/>
 <path d="M1595 1577 c-9 -22 -2 -62 10 -60 6 1 11 14 13 29 4 32 -14 56 -23 31z"/>
 <path d="M1026 1561 c-4 -5 -2 -12 3 -15 5 -4 12 -2 15 3 4 5 2 12 -3 15 -5 4 -12 2 -15 -3z"/>
 <path d="M635 1541 c-3 -6 2 -14 12 -18 9 -4 49 -19 88 -33 54 -20 70 -30 70 -45 0 -16 -7 -20 -35 -20 l-35 0 -41 -115 c-23 -63 -49 -125 -58 -138 -10 -12 -14 -27 -11 -33 15 -23 44 27 85 142 42 118 43 120 70 115 34 -5 62 21 57 53 -5 31 -15 38 -92 65 -39 13 -77 27 -86 31 -10 3 -20 2 -24 -4z"/>
 <path d="M1055 1540 c-6 -9 28 -32 42 -29 4 1 16 -1 26 -5 9 -5 23 -6 30 -3 6 2 14 4 17 4 14 -1 50 25 45 34 -4 5 -15 4 -28 -3 -23 -12 -66 -15 -83 -6 -23 13 -44 16 -49 8z"/>
 <path d="M1321 1506 c-8 -10 -6 -17 8 -30 11 -10 21 -13 25 -7 4 5 2 12 -4 16 -6 4 -8 10 -5 15 9 15 -12 21 -24 6z"/>
 <path d="M585 1500 c-8 -14 23 -50 42 -50 9 0 12 -9 9 -27 -2 -16 -5 -29 -6 -30 -2 -2 -4 -6 -5 -10 -1 -5 -10 -27 -20 -49 -15 -36 -21 -42 -44 -39 -28 3 -54 -12 -45 -26 3 -5 13 -5 24 1 13 7 21 7 25 0 19 -31 56 13 69 82 3 13 5 24 7 26 1 1 2 5 3 10 1 4 8 18 15 31 12 22 11 26 -9 43 -13 11 -29 17 -36 14 -8 -3 -11 0 -8 8 7 17 -12 30 -21 16z"/>
 <path d="M414 1464 c-11 -25 -12 -40 -5 -47 7 -7 12 -6 15 4 3 8 10 26 15 41 16 43 -7 45 -25 2z"/>
 <path d="M1366 1462 c-3 -6 1 -15 8 -21 8 -7 17 -8 20 -3 3 6 -1 15 -8 21 -8 7 -17 8 -20 3z"/>
 <path d="M965 1410 c-8 -12 -8 -12 36 -15 44 -3 94 -36 115 -77 10 -20 19 -27 25 -21 13 13 -18 70 -52 95 -28 21 -115 33 -124 18z"/>
 <path d="M1686 1401 c-4 -5 -2 -12 3 -15 5 -4 12 -2 15 3 4 5 2 12 -3 15 -5 4 -12 2 -15 -3z"/>
 <path d="M896 1371 c-10 -11 -13 -22 -8 -25 5 -3 17 3 26 13 10 11 13 22 8 25 -5 3 -17 -3 -26 -13z"/>
 <path d="M1715 1381 c-3 -6 3 -15 14 -21 12 -6 22 -6 26 -1 3 6 -3 15 -14 21 -12 6 -22 6 -26 1z"/>
 <path d="M364 1324 c-11 -25 -12 -40 -5 -47 7 -7 12 -6 15 4 3 8 10 26 15 41 16 43 -7 45 -25 2z"/>
 <path d="M1785 1350 c-6 -10 7 -18 37 -24 7 -2 24 -8 38 -13 14 -6 29 -8 33 -6 12 7 -9 26 -30 28 -10 1 -28 7 -40 13 -26 15 -30 15 -38 2z"/>
 <path d="M972 1328 c-24 -27 -65 -126 -58 -143 2 -7 0 -17 -6 -23 -7 -7 -6 -17 2 -32 9 -16 15 -19 23 -11 9 9 8 16 -1 31 -7 12 -8 21 -2 25 6 3 10 14 10 23 0 9 11 41 25 70 29 63 57 68 65 14 6 -38 24 -44 28 -9 3 25 -32 77 -52 77 -7 0 -22 -10 -34 -22z"/>
 <path d="M866 1331 c-4 -5 -2 -12 3 -15 5 -4 12 -2 15 3 4 5 2 12 -3 15 -5 4 -12 2 -15 -3z"/>
 <path d="M1946 1302 c-3 -6 1 -15 8 -21 8 -7 17 -8 20 -3 3 6 -1 15 -8 21 -8 7 -17 8 -20 3z"/>
 <path d="M1386 1281 c-6 -9 35 -41 52 -41 13 0 32 -41 40 -88 8 -52 26 -60 30 -15 4 45 -24 100 -67 129 -39 26 -47 29 -55 15z"/>
 <path d="M830 1255 c-7 -19 -7 -32 -1 -38 7 -7 14 -1 21 18 7 19 7 32 1 38 -7 7 -14 1 -21 -18z"/>
 <path d="M1286 1271 c-4 -5 -2 -12 3 -15 5 -4 12 -2 15 3 4 5 2 12 -3 15 -5 4 -12 2 -15 -3z"/>
 <path d="M1246 1241 c-10 -11 -13 -22 -8 -25 5 -3 17 3 26 13 10 11 13 22 8 25 -5 3 -17 -3 -26 -13z"/>
 <path d="M1997 1254 c-3 -4 -1 -16 5 -28 15 -26 16 -47 4 -64 -5 -7 -6 -15 -3 -19 4 -3 2 -12 -4 -19 -6 -8 -6 -14 0 -18 5 -4 12 -2 16 4 3 5 3 10 -1 10 -3 0 -1 7 6 15 7 9 10 18 7 22 -4 3 -2 12 4 19 6 7 7 19 3 26 -5 7 -9 19 -11 27 -2 18 -18 33 -26 25z"/>
 <path d="M496 1241 c-4 -5 -2 -12 3 -15 5 -4 12 -2 15 3 4 5 2 12 -3 15 -5 4 -12 2 -15 -3z"/>
 <path d="M1115 1231 c-3 -5 -1 -12 5 -16 6 -4 6 -12 0 -23 -29 -53 -39 -81 -30 -87 10 -6 55 73 46 83 -3 3 -1 11 5 18 11 14 4 34 -11 34 -5 0 -11 -4 -15 -9z"/>
 <path d="M1009 1180 c-14 -33 -31 -55 -46 -61 -25 -9 -23 -29 2 -29 30 0 95 114 76 133 -6 6 -18 -10 -32 -43z"/>
 <path d="M314 1184 c-11 -25 -12 -40 -5 -47 7 -7 12 -6 15 4 3 8 10 26 15 41 16 43 -7 45 -25 2z"/>
 <path d="M536 1212 c-3 -6 1 -15 8 -21 8 -7 17 -8 20 -3 3 6 -1 15 -8 21 -8 7 -17 8 -20 3z"/>
 <path d="M1325 1200 c-27 -30 -58 -111 -46 -123 7 -7 13 -2 21 19 24 66 33 84 47 96 12 10 18 8 33 -11 9 -13 20 -19 23 -14 10 15 -18 46 -42 48 -11 1 -28 -6 -36 -15z"/>
 <path d="M1205 1181 c-8 -17 -17 -38 -18 -48 -2 -10 -8 -26 -12 -36 -4 -11 -3 -23 3 -29 8 -8 13 -7 18 6 4 9 4 20 0 23 -3 3 -2 11 3 17 18 22 40 86 31 91 -5 3 -16 -8 -25 -24z"/>
 <path d="M814 1186 c-8 -21 3 -49 16 -41 5 3 10 15 10 25 0 25 -18 36 -26 16z"/>
 <path d="M576 1182 c-3 -6 1 -15 8 -21 8 -7 17 -8 20 -3 3 6 -1 15 -8 21 -8 7 -17 8 -20 3z"/>
 <path d="M1686 1161 c-4 -6 -11 -9 -16 -6 -5 3 -11 1 -14 -4 -4 -5 -2 -12 3 -15 5 -4 12 -2 15 3 7 11 81 -3 101 -19 11 -9 19 -10 26 -3 8 8 4 16 -14 28 -33 21 -92 31 -101 16z"/>
 <path d="M1606 1121 c-10 -11 -13 -22 -8 -25 5 -3 17 3 26 13 10 11 13 22 8 25 -5 3 -17 -3 -26 -13z"/>
 <path d="M826 1121 c-4 -5 -2 -12 3 -15 5 -4 12 -2 15 3 4 5 2 12 -3 15 -5 4 -12 2 -15 -3z"/>
 <path d="M1385 1120 c-4 -6 -4 -14 -1 -17 3 -3 1 -12 -5 -19 -6 -8 -6 -14 0 -18 5 -4 12 -2 16 4 3 5 3 10 -1 10 -3 0 -1 7 6 15 9 11 10 19 3 26 -8 8 -13 7 -18 -1z"/>
 <path d="M1817 1104 c-8 -14 21 -76 33 -69 5 3 10 12 10 19 0 19 -36 61 -43 50z"/>
 <path d="M1056 1081 c-10 -11 -13 -22 -8 -25 5 -3 17 3 26 13 10 11 13 22 8 25 -5 3 -17 -3 -26 -13z"/>
 <path d="M1467 1094 c-3 -3 -3 -12 -1 -19 6 -15 -18 -65 -52 -112 -13 -17 -20 -34 -15 -37 22 -14 109 130 97 161 -6 14 -19 17 -29 7z"/>
 <path d="M1666 1057 c-14 -19 -26 -40 -26 -48 0 -8 -7 -24 -15 -36 -13 -18 -13 -22 1 -34 13 -10 16 -9 21 11 4 13 18 48 33 77 31 62 23 79 -14 30z"/>
 <path d="M264 1044 c-11 -25 -12 -40 -5 -47 7 -7 12 -6 15 4 3 8 10 26 15 41 16 43 -7 45 -25 2z"/>
 <path d="M1259 1063 c-3 -25 4 -79 11 -87 14 -14 44 2 32 17 -6 6 -12 25 -14 41 -3 26 -26 50 -29 29z"/>
 <path d="M1736 1061 c-4 -5 -2 -12 3 -15 5 -4 12 -2 15 3 4 5 2 12 -3 15 -5 4 -12 2 -15 -3z"/>
 <path d="M1002 1049 c-13 -5 -20 -13 -17 -19 8 -13 18 -13 40 3 23 17 8 28 -23 16z"/>
 <path d="M915 1041 c-7 -12 12 -24 25 -16 11 7 4 25 -10 25 -5 0 -11 -4 -15 -9z"/>
 <path d="M1960 1024 c-6 -16 -13 -34 -15 -41 -2 -7 0 -15 6 -18 14 -9 43 65 30 78 -7 7 -14 1 -21 -19z"/>
 <path d="M495 1030 c-3 -6 -10 -8 -15 -5 -21 13 -106 -86 -113 -131 -1 -10 -6 -24 -10 -31 -4 -6 -3 -14 3 -18 5 -3 11 -4 11 -1 1 3 2 9 3 14 15 60 94 157 128 157 7 0 14 4 16 10 5 14 -15 18 -23 5z"/>
 <path d="M546 1031 c-4 -6 13 -19 36 -30 31 -14 49 -30 61 -57 12 -25 21 -34 28 -27 13 13 -18 70 -51 94 -33 23 -67 32 -74 20z"/>
 <path d="M1174 1016 c-6 -15 9 -50 34 -78 23 -27 35 -10 12 19 -11 14 -20 34 -20 44 0 23 -19 35 -26 15z"/>
 <path d="M1549 1026 c-1 -3 -2 -9 -3 -13 -1 -5 -5 -14 -9 -20 -5 -7 -6 -17 -2 -22 3 -5 1 -12 -4 -15 -10 -7 -12 -65 -2 -81 3 -5 6 -16 7 -24 3 -19 45 -61 56 -55 4 3 -4 20 -19 39 -22 26 -28 43 -27 77 0 25 4 50 8 57 5 7 5 15 2 18 -3 3 -1 12 5 19 7 8 7 14 -1 19 -5 3 -11 4 -11 1z"/>
 <path d="M1331 996 c-7 -8 -8 -17 -3 -20 6 -3 15 1 21 8 7 8 8 17 3 20 -6 3 -15 -1 -21 -8z"/>
 <path d="M1829 998 c0 -2 -2 -18 -4 -36 -10 -103 -122 -206 -183 -168 -7 4 -17 4 -22 1 -13 -8 -3 -26 13 -24 7 1 20 -1 30 -6 10 -4 23 -2 32 5 8 7 15 10 15 6 0 -17 64 29 90 65 32 45 65 133 55 149 -5 9 -24 14 -26 8z"/>
 <path d="M1738 985 c0 -6 -2 -14 -3 -20 -2 -17 -44 -93 -54 -100 -5 -3 -21 7 -35 22 -23 24 -26 25 -32 9 -13 -34 48 -65 84 -43 14 10 56 87 46 87 -4 0 -1 7 6 15 10 12 10 19 2 27 -7 7 -13 8 -14 3z"/>
 <path d="M498 943 c-14 -16 -29 -39 -33 -53 -4 -14 -13 -35 -21 -47 -11 -18 -11 -23 0 -33 17 -13 18 -11 40 57 10 29 22 55 27 59 5 3 7 10 4 15 -7 10 23 1 41 -12 19 -15 25 4 7 23 -22 25 -35 23 -65 -9z"/>
 <path d="M214 904 c-11 -25 -12 -40 -5 -47 7 -7 12 -6 15 4 3 8 10 26 15 41 16 43 -7 45 -25 2z"/>
 <path d="M1256 921 c-4 -5 -2 -12 4 -16 5 -3 10 -3 10 1 0 3 6 2 13 -3 16 -13 67 -11 67 2 0 6 -15 10 -33 10 -17 0 -37 4 -44 8 -6 4 -14 3 -17 -2z"/>
 <path d="M825 898 c-34 -18 -75 -61 -69 -70 4 -5 18 2 33 16 14 13 39 30 54 35 16 6 25 15 22 21 -8 13 -15 12 -40 -2z"/>
 <path d="M916 901 c-6 -9 36 -41 53 -41 6 0 14 -12 17 -27 15 -59 35 -96 46 -85 6 6 7 18 3 29 -5 10 -9 23 -10 28 -4 31 -28 65 -58 84 -39 24 -43 25 -51 12z"/>
 <path d="M1910 884 c-6 -16 -13 -34 -15 -41 -2 -7 0 -15 6 -18 14 -9 43 65 30 78 -7 7 -14 1 -21 -19z"/>
 <path d="M649 868 c0 -2 -2 -17 -3 -33 -2 -17 -13 -49 -24 -73 -22 -45 -13 -68 12 -30 22 34 47 110 42 125 -5 11 -25 19 -27 11z"/>
 <path d="M555 850 c-4 -6 -3 -16 3 -22 6 -6 12 -6 17 2 4 6 3 16 -3 22 -6 6 -12 6 -17 -2z"/>
 <path d="M345 817 c-9 -22 -2 -62 10 -60 6 1 11 14 13 29 4 32 -14 56 -23 31z"/>
 <path d="M842 807 c-22 -26 -42 -91 -33 -100 7 -7 14 -1 20 16 6 15 17 40 26 57 15 29 6 50 -13 27z"/>
 <path d="M915 801 c-3 -6 -4 -15 -1 -19 3 -4 0 -28 -6 -53 -5 -24 -11 -49 -12 -55 -1 -7 -8 -19 -14 -27 -8 -9 -9 -18 -3 -21 8 -5 23 8 27 24 0 3 8 21 17 41 22 48 15 146 -8 110z"/>
 <path d="M1176 801 c-7 -11 24 -26 111 -55 67 -22 81 -39 52 -60 -13 -8 -27 -12 -33 -8 -28 21 -40 2 -85 -126 -38 -110 -49 -132 -63 -128 -24 6 -32 -9 -14 -24 30 -24 52 6 96 132 44 126 55 144 77 127 16 -14 56 8 50 26 -3 7 -1 17 5 23 19 19 -9 39 -90 67 -42 15 -82 29 -89 31 -6 3 -14 0 -17 -5z"/>
 <path d="M176 791 c-4 -5 -2 -12 3 -15 5 -4 12 -2 15 3 4 5 2 12 -3 15 -5 4 -12 2 -15 -3z"/>
 <path d="M530 781 c-6 -12 -6 -22 -1 -26 6 -3 15 3 21 14 6 12 6 22 1 26 -6 3 -15 -3 -21 -14z"/>
 <path d="M1879 796 c-3 -13 -6 -22 -13 -38 -4 -9 -8 -22 -10 -30 -1 -7 -5 -18 -9 -25 -4 -6 -3 -14 3 -18 5 -3 11 -4 11 -1 1 3 2 9 3 14 1 4 8 18 15 30 7 13 10 26 7 29 -3 4 -1 12 5 19 7 8 7 14 -1 19 -5 3 -11 4 -11 1z"/>
 <path d="M720 771 c-6 -12 -6 -22 -1 -26 6 -3 15 3 21 14 6 12 6 22 1 26 -6 3 -15 -3 -21 -14z"/>
 <path d="M437 774 c-3 -4 -2 -16 4 -26 8 -15 14 -17 22 -9 8 8 7 15 -4 26 -8 9 -18 13 -22 9z"/>
 <path d="M1120 759 c-14 -24 -5 -37 30 -43 14 -2 26 -5 27 -5 1 -1 -4 -19 -12 -41 -8 -22 -12 -40 -8 -40 3 0 0 -6 -6 -14 -8 -10 -9 -16 -1 -21 5 -3 11 -4 11 -1 3 14 7 23 22 57 16 37 17 73 1 75 -24 2 -45 18 -40 30 9 23 -12 26 -24 3z"/>
 <path d="M164 746 c-3 -9 -3 -24 2 -33 4 -10 8 -21 9 -25 2 -5 4 -10 5 -13 1 -3 3 -9 4 -15 0 -5 4 -10 9 -10 7 0 8 4 6 15 -1 3 -3 10 -4 15 -1 6 -4 13 -5 18 -1 4 -1 17 -1 29 3 26 -17 40 -25 19z"/>
 <path d="M475 731 c-7 -12 12 -24 25 -16 11 7 4 25 -10 25 -5 0 -11 -4 -15 -9z"/>
 <path d="M705 720 c-4 -6 -3 -16 3 -22 6 -6 12 -6 17 2 4 6 3 16 -3 22 -6 6 -12 6 -17 -2z"/>
 <path d="M1007 723 c-2 -4 -8 -22 -11 -39 -4 -18 -20 -52 -36 -78 -16 -25 -25 -48 -20 -51 12 -7 65 74 81 122 7 23 8 38 1 45 -5 5 -12 6 -15 1z"/>
 <path d="M376 701 c-4 -5 -2 -12 3 -15 5 -4 12 -2 15 3 4 5 2 12 -3 15 -5 4 -12 2 -15 -3z"/>
 <path d="M586 701 c-4 -5 -2 -12 3 -15 5 -4 12 -2 15 3 4 5 2 12 -3 15 -5 4 -12 2 -15 -3z"/>
 <path d="M1447 697 c-10 -7 -19 -19 -20 -27 -2 -8 -6 -20 -10 -26 -4 -7 0 -17 8 -24 8 -7 15 -9 15 -5 0 4 6 2 13 -4 8 -6 17 -8 21 -4 3 4 0 -12 -8 -35 -8 -23 -13 -42 -9 -42 3 0 0 -7 -7 -15 -7 -8 -10 -15 -6 -15 4 0 -1 -11 -10 -25 -11 -17 -22 -24 -35 -20 -11 4 -30 -5 -51 -24 -32 -29 -32 -29 -14 -50 21 -23 44 -18 25 5 -17 20 8 47 38 41 29 -5 51 11 57 43 3 14 5 26 7 28 1 1 2 5 4 10 1 4 10 24 19 46 16 36 16 39 0 57 -9 10 -20 16 -24 14 -4 -3 -13 1 -19 9 -8 10 -6 17 9 31 21 19 18 19 120 -22 59 -24 65 -29 65 -54 0 -26 30 -35 30 -9 0 8 4 20 8 27 10 16 -24 38 -109 67 -38 13 -76 27 -84 30 -9 4 -24 1 -33 -7z"/>
 <path d="M789 696 c-2 -3 -3 -25 -1 -50 3 -33 10 -49 23 -57 27 -14 44 -1 25 19 -8 10 -16 32 -18 51 -3 31 -17 49 -29 37z"/>
 <path d="M445 661 c-7 -12 12 -24 25 -16 11 7 4 25 -10 25 -5 0 -11 -4 -15 -9z"/>
 <path d="M505 661 c-7 -12 12 -24 25 -16 11 7 4 25 -10 25 -5 0 -11 -4 -15 -9z"/>
 <path d="M1829 656 c-3 -13 -6 -22 -13 -38 -4 -9 -8 -22 -10 -30 -1 -7 -5 -18 -9 -25 -4 -6 -3 -14 3 -18 5 -3 11 -4 11 -1 1 3 2 9 3 14 1 4 8 18 15 30 7 13 10 26 7 29 -3 4 -1 12 5 19 7 8 7 14 -1 19 -5 3 -11 4 -11 1z"/>
 <path d="M705 630 c-4 -6 -3 -16 3 -22 6 -6 12 -6 17 2 4 6 3 16 -3 22 -6 6 -12 6 -17 -2z"/>
 <path d="M245 601 c-3 -6 4 -15 15 -21 11 -6 20 -8 20 -4 0 3 6 1 14 -5 10 -8 16 -9 21 -1 3 5 4 11 1 11 -3 1 -9 2 -13 3 -5 1 -18 7 -30 14 -13 7 -24 8 -28 3z"/>
 <path d="M726 582 c-3 -5 3 -17 13 -26 11 -10 22 -13 25 -8 3 5 -3 17 -13 26 -11 10 -22 13 -25 8z"/>
 <path d="M1553 541 c-7 -20 -18 -45 -23 -56 -5 -11 -16 -45 -26 -75 -23 -74 -43 -104 -59 -90 -8 7 -16 7 -19 2 -7 -12 18 -34 28 -25 4 4 15 8 24 8 13 0 29 33 62 127 26 74 50 127 57 125 6 -1 11 2 10 8 -1 5 -10 10 -21 10 -12 1 -23 -10 -33 -34z"/>
 <path d="M345 560 c-3 -5 -4 -11 -1 -11 3 -1 9 -2 14 -3 4 -1 18 -8 30 -15 13 -7 26 -10 29 -7 4 3 12 1 19 -5 8 -7 14 -7 19 1 3 5 4 11 1 11 -13 3 -22 6 -38 13 -9 4 -22 8 -30 10 -7 1 -18 5 -25 9 -6 4 -14 3 -18 -3z"/>
 <path d="M1080 556 c-13 -16 -14 -16 34 -30 18 -6 40 19 31 34 -5 8 -11 8 -19 1 -9 -7 -16 -7 -23 0 -7 7 -14 5 -23 -5z"/>
 <path d="M895 548 c-21 -13 -76 -15 -93 -5 -6 4 -13 3 -17 -3 -6 -10 -5 -11 14 -14 5 0 13 -4 17 -8 11 -11 52 -10 59 2 4 6 10 8 14 5 5 -2 16 2 26 9 23 16 6 28 -20 14z"/>
 <path d="M1031 517 c-8 -11 -5 -19 13 -36 13 -12 27 -18 30 -13 3 5 -1 15 -9 22 -8 7 -13 16 -10 20 9 15 -12 20 -24 7z"/>
 <path d="M485 510 c-3 -5 -4 -11 -1 -11 3 -1 9 -2 14 -3 4 -1 18 -8 30 -15 13 -7 26 -10 29 -7 4 3 12 1 19 -5 8 -7 14 -7 19 1 3 5 4 11 1 11 -13 3 -22 6 -38 13 -9 4 -22 8 -30 10 -7 1 -18 5 -25 9 -6 4 -14 3 -18 -3z"/>
 <path d="M1779 516 c-3 -13 -6 -22 -13 -38 -4 -9 -8 -22 -10 -30 -1 -7 -5 -18 -9 -25 -4 -6 -3 -14 3 -18 5 -3 11 -4 11 -1 1 3 2 9 3 14 1 4 8 18 15 30 7 13 10 26 7 29 -3 4 -1 12 5 19 7 8 7 14 -1 19 -5 3 -11 4 -11 1z"/>
 <path d="M625 460 c-3 -5 -4 -11 -1 -11 3 -1 9 -2 14 -3 4 -1 18 -8 30 -15 13 -7 26 -10 29 -7 4 3 12 1 19 -5 8 -7 14 -7 19 1 3 5 4 11 1 11 -13 3 -22 6 -38 13 -9 4 -22 8 -30 10 -7 1 -18 5 -25 9 -6 4 -14 3 -18 -3z"/>
 <path d="M1086 462 c-3 -6 1 -15 8 -21 8 -7 17 -8 20 -3 3 6 -1 15 -8 21 -8 7 -17 8 -20 3z"/>
 <path d="M765 410 c-3 -5 -4 -11 -1 -11 3 -1 9 -2 14 -3 4 -1 18 -8 30 -15 13 -7 26 -10 29 -7 4 3 12 1 19 -5 8 -7 14 -7 19 1 3 5 4 11 1 11 -13 3 -22 6 -38 13 -9 4 -22 8 -30 10 -7 1 -18 5 -25 9 -6 4 -14 3 -18 -3z"/>
 <path d="M1729 376 c-3 -13 -6 -22 -13 -38 -4 -9 -8 -22 -10 -30 -1 -7 -5 -18 -9 -25 -4 -6 -3 -14 3 -18 5 -3 11 -4 11 -1 1 3 2 9 3 14 1 4 8 18 15 30 7 13 10 26 7 29 -3 4 -1 12 5 19 7 8 7 14 -1 19 -5 3 -11 4 -11 1z"/>
 <path d="M905 360 c-3 -5 -4 -11 -1 -11 3 -1 9 -2 14 -3 4 -1 18 -8 30 -15 13 -7 26 -10 29 -7 4 3 12 1 19 -5 8 -7 14 -7 19 1 3 5 4 11 1 11 -13 3 -22 6 -38 13 -9 4 -22 8 -30 10 -7 1 -18 5 -25 9 -6 4 -14 3 -18 -3z"/>
 <path d="M1376 362 c-3 -6 1 -15 8 -21 8 -7 17 -8 20 -3 3 6 -1 15 -8 21 -8 7 -17 8 -20 3z"/>
 <path d="M1045 310 c-3 -5 -4 -11 -1 -11 3 -1 9 -2 14 -3 4 -1 18 -8 30 -15 13 -7 26 -10 29 -7 4 3 12 1 19 -5 8 -7 14 -7 19 1 3 5 4 11 1 11 -13 3 -22 6 -38 13 -9 4 -22 8 -30 10 -7 1 -18 5 -25 9 -6 4 -14 3 -18 -3z"/>
 <path d="M1185 260 c-3 -5 -4 -11 -1 -11 3 -1 9 -2 14 -3 4 -1 18 -8 30 -15 13 -7 26 -10 29 -7 4 3 12 1 19 -5 8 -7 14 -7 19 1 3 5 4 11 1 11 -13 3 -22 6 -38 13 -9 4 -22 8 -30 10 -7 1 -18 5 -25 9 -6 4 -14 3 -18 -3z"/>
 <path d="M1676 231 c-4 -5 -2 -12 3 -15 5 -4 12 -2 15 3 4 5 2 12 -3 15 -5 4 -12 2 -15 -3z"/>
 <path d="M1325 210 c-3 -5 -4 -11 -1 -11 3 -1 9 -2 14 -3 4 -1 18 -8 30 -15 13 -7 26 -10 29 -7 4 3 12 1 19 -5 8 -7 14 -7 19 1 3 5 4 11 1 11 -13 3 -22 6 -38 13 -9 4 -22 8 -30 10 -7 1 -18 5 -25 9 -6 4 -14 3 -18 -3z"/>
 <path d="M1630 180 c-19 -15 -39 -26 -46 -23 -16 6 -28 -14 -14 -22 6 -4 17 -2 24 4 7 6 15 9 18 6 2 -2 19 8 38 24 18 15 29 30 24 33 -5 4 -25 -6 -44 -22z"/>
 <path d="M1466 162 c-3 -6 -2 -13 4 -17 5 -3 10 -3 10 1 0 3 7 1 15 -6 8 -6 19 -9 25 -5 14 9 1 28 -15 21 -7 -2 -17 0 -23 6 -6 6 -12 6 -16 0z"/>
 </g>
<g id="layer3" fill="#5a5f64" stroke="none">
 <path d="M808 2356 c-26 -7 -55 -19 -65 -26 -48 -36 -87 -78 -105 -113 -24 -47 -490 -1352 -508 -1423 -23 -92 12 -192 86 -240 34 -23 1230 -450 1312 -469 35 -8 78 -15 96 -15 79 0 180 60 224 133 25 41 327 884 343 957 37 174 -63 453 -274 758 -50 73 -95 116 -153 145 -66 34 -819 297 -863 302 -25 2 -67 -1 -93 -9z m42 -156 c19 -5 73 -23 120 -40 47 -17 110 -40 140 -50 30 -10 93 -33 140 -50 47 -17 110 -40 140 -50 30 -10 93 -33 140 -50 47 -17 92 -33 101 -36 8 -3 23 -27 33 -53 14 -41 15 -55 5 -97 -7 -27 -13 -50 -15 -52 -1 -2 -50 13 -109 33 -59 21 -111 33 -115 29 -5 -5 -10 -20 -12 -34 -2 -19 4 -28 30 -40 19 -9 29 -20 24 -25 -5 -6 -19 -43 -32 -83 -22 -71 -24 -74 -50 -68 -20 4 -33 -1 -49 -18 l-21 -22 22 -20 c57 -49 109 -85 117 -80 4 3 29 66 55 140 l48 134 29 -10 c33 -11 33 -9 18 -58 -19 -62 -4 -123 41 -170 21 -22 42 -40 46 -40 4 0 15 -6 23 -14 18 -16 79 -40 161 -63 79 -22 109 -40 127 -77 14 -31 14 -38 -10 -117 -13 -46 -41 -129 -62 -184 -20 -55 -42 -118 -50 -140 -8 -22 -28 -78 -45 -125 -17 -47 -40 -110 -50 -140 -10 -30 -33 -93 -50 -140 -17 -47 -38 -106 -46 -133 -19 -58 -66 -97 -127 -104 -45 -5 -97 8 -257 67 -47 17 -110 40 -140 50 -30 10 -93 33 -140 50 -47 17 -110 40 -140 50 -30 10 -93 33 -140 50 -47 17 -110 40 -140 50 -30 10 -93 33 -140 50 -47 17 -105 38 -130 46 -98 31 -145 74 -155 141 -7 47 -2 63 120 398 20 55 42 118 50 140 7 22 29 85 50 140 20 55 42 118 50 140 7 22 29 85 50 140 20 55 42 118 50 140 7 22 29 85 50 140 20 55 43 120 50 145 21 67 81 118 140 119 11 0 36 -4 55 -9z m974 -470 c68 -102 75 -114 123 -211 46 -94 61 -130 72 -179 15 -63 14 -65 -18 -38 -15 14 -64 37 -107 52 -146 50 -159 56 -197 90 -61 54 -68 126 -22 216 34 67 39 87 40 151 l0 70 23 -28 c12 -15 51 -71 86 -123z"/>
 <path d="M767 1993 c-10 -22 -9 -28 7 -37 52 -32 51 -28 23 -102 -14 -38 -28 -77 -31 -88 -6 -17 -8 -17 -30 -3 -22 15 -25 14 -45 -7 -11 -12 -21 -25 -21 -28 0 -12 123 -99 134 -95 7 3 33 63 59 134 37 106 48 127 64 125 55 -10 58 -8 58 28 0 35 0 35 -90 67 -49 18 -96 33 -103 33 -7 0 -18 -12 -25 -27z"/>
 <path d="M1148 1892 c-80 -7 -172 -168 -153 -269 13 -72 99 -127 172 -108 37 9 95 72 112 120 7 22 20 47 28 57 10 11 11 18 4 23 -14 8 -14 58 0 72 8 8 8 13 0 17 -6 4 -11 5 -11 1 0 -3 -14 10 -31 29 -39 45 -74 62 -121 58z m56 -98 c20 -53 -17 -173 -60 -193 -28 -12 -41 -14 -31 -4 9 9 -13 34 -24 27 -15 -9 -10 23 6 36 10 8 12 17 6 24 -12 14 21 93 47 112 23 18 49 17 56 -2z"/>
 <path d="M602 1527 c-6 -7 -12 -23 -14 -36 -2 -21 3 -26 30 -33 26 -7 32 -13 27 -26 -4 -9 -17 -48 -30 -86 -13 -37 -26 -70 -28 -73 -3 -2 -14 0 -25 6 -28 15 -27 15 -47 -16 -17 -25 -17 -27 6 -45 78 -63 103 -77 113 -68 7 5 32 66 56 135 45 126 52 135 91 115 15 -9 21 -7 26 7 3 10 13 26 21 35 12 15 12 18 1 22 -8 3 -60 21 -116 40 -77 26 -104 32 -111 23z"/>
 <path d="M899 1359 c-52 -54 -79 -123 -79 -199 0 -35 7 -48 44 -87 40 -43 47 -47 95 -47 49 -1 55 2 90 39 21 23 46 63 56 90 10 28 25 57 32 67 17 20 14 84 -4 81 -15 -3 -17 13 -3 22 14 9 1 27 -15 21 -7 -2 -16 1 -18 8 -8 19 -88 56 -122 56 -22 0 -41 -12 -76 -51z m131 -48 c5 -11 10 -30 10 -43 0 -36 -32 -117 -57 -144 -24 -26 -45 -32 -40 -11 1 6 -5 11 -15 11 -23 -2 -17 66 12 134 30 70 68 93 90 53z"/>
 <path d="M1310 1279 c-69 -28 -131 -136 -134 -231 -1 -49 3 -61 29 -94 33 -40 94 -65 138 -57 38 7 103 81 120 138 14 45 23 124 16 150 -1 6 -3 16 -3 22 -1 7 -4 12 -8 10 -3 -1 -17 7 -30 19 -33 29 -75 54 -90 53 -7 0 -24 -5 -38 -10z m74 -95 c12 -32 5 -78 -20 -135 -23 -51 -30 -59 -54 -59 -46 0 -54 20 -35 87 23 80 51 123 80 123 12 0 26 -7 29 -16z"/>
 <path d="M1605 1104 c-31 -32 -49 -61 -59 -97 -29 -102 -25 -138 22 -188 31 -33 45 -41 88 -45 47 -6 53 -4 89 27 37 33 85 117 85 150 0 9 7 22 16 29 18 15 15 66 -3 62 -12 -2 -15 5 -17 53 -1 11 -7 19 -13 18 -7 -2 -27 6 -45 17 -20 12 -51 20 -76 20 -38 0 -48 -5 -87 -46z m133 -85 c4 -61 -27 -140 -62 -157 -34 -17 -49 -7 -42 29 3 15 1 31 -4 34 -11 7 -6 24 27 93 23 46 29 53 52 50 23 -3 26 -8 29 -49z"/>
 <path d="M493 1028 c-66 -17 -143 -143 -143 -233 0 -122 130 -193 224 -121 20 15 36 31 36 35 0 5 10 30 22 57 12 27 21 53 20 58 -2 5 4 17 13 26 19 21 17 76 -2 73 -7 -2 -12 5 -10 15 1 9 -2 18 -6 19 -5 0 -21 12 -35 26 -43 39 -83 54 -119 45z m65 -137 c5 -84 -48 -180 -83 -151 -8 6 -19 9 -25 5 -14 -8 -13 8 2 23 8 8 8 15 1 24 -25 30 44 159 82 155 17 -2 20 -11 23 -56z"/>
 <path d="M833 895 c-74 -33 -144 -180 -128 -269 10 -53 61 -95 123 -103 46 -5 56 -3 87 21 34 26 85 110 85 139 0 8 7 20 15 27 11 9 12 16 2 31 -9 14 -9 24 -1 36 12 19 -11 78 -26 68 -5 -3 -12 -1 -15 5 -10 16 -83 60 -97 59 -7 0 -27 -7 -45 -14z m75 -87 c31 -31 -10 -176 -55 -197 -21 -10 -29 -9 -45 6 -23 20 -19 60 13 132 27 62 61 85 87 59z"/>
 <path d="M1134 774 c-18 -26 -17 -27 4 -45 12 -9 27 -19 34 -21 8 -3 6 -20 -7 -59 -11 -30 -23 -58 -27 -64 -4 -5 -8 -17 -8 -26 0 -24 -18 -33 -36 -18 -13 10 -19 8 -40 -13 l-26 -25 67 -53 c37 -30 70 -49 75 -44 4 5 29 68 55 141 46 129 47 131 71 121 27 -13 54 3 54 32 0 25 -18 37 -96 64 -38 13 -77 27 -86 31 -11 5 -22 -2 -34 -21z"/>
 <path d="M1430 664 c-12 -31 2 -54 31 -54 25 0 24 -2 -11 -100 -16 -46 -30 -85 -30 -88 0 -2 -11 3 -24 11 -22 15 -25 14 -45 -7 -11 -12 -21 -25 -21 -28 0 -3 28 -27 61 -53 74 -58 84 -55 111 35 11 36 23 70 27 75 5 6 14 32 21 59 l13 48 38 -5 c31 -4 41 -1 52 17 18 26 6 56 -22 56 -10 0 -21 3 -24 7 -7 7 -145 53 -160 53 -4 0 -12 -12 -17 -26z"/>
 </g>
<g id="layer4" fill="#f0f0f0" stroke="none">
 <path d="M735 2201 c-16 -10 -41 -30 -54 -44 -16 -17 -103 -248 -268 -709 -218 -610 -244 -688 -240 -731 4 -50 26 -88 68 -119 19 -14 837 -313 1218 -444 93 -32 134 -27 191 24 40 36 47 52 206 497 90 253 167 476 170 496 7 44 -14 89 -53 116 -16 11 -74 34 -131 52 -56 18 -120 46 -142 62 -76 55 -103 127 -77 205 l15 46 -31 13 c-18 7 -35 11 -38 9 -4 -2 -26 -60 -50 -129 -29 -82 -50 -127 -61 -131 -10 -3 -38 12 -73 38 l-56 43 26 23 c20 17 30 20 45 12 23 -13 27 -7 62 90 27 75 25 100 -8 100 -18 0 -26 17 -19 40 9 27 28 25 130 -12 101 -37 112 -33 121 48 5 39 2 59 -15 91 -24 48 19 30 -484 209 -208 74 -363 124 -385 124 -20 0 -50 -8 -67 -19z m172 -217 c43 -15 81 -30 84 -33 4 -3 3 -17 -2 -30 -8 -20 -14 -22 -39 -18 -36 8 -37 6 -86 -135 -36 -102 -49 -128 -64 -128 -4 0 -33 20 -65 44 l-57 44 21 21 c23 23 46 27 57 10 3 -6 10 -7 15 -2 12 12 68 176 63 184 -2 4 -17 10 -34 14 -22 5 -27 11 -23 23 10 28 25 43 39 38 7 -3 48 -17 91 -32z m348 -123 c61 -35 67 -128 14 -238 -24 -51 -37 -65 -74 -83 -57 -28 -108 -19 -152 26 -29 28 -33 39 -33 83 0 57 31 150 63 187 27 30 93 55 127 47 14 -3 39 -13 55 -22z m-524 -362 c85 -30 90 -33 87 -58 -3 -23 -7 -26 -42 -26 l-38 0 -47 -129 c-25 -71 -50 -131 -56 -133 -5 -2 -36 17 -67 42 -53 41 -57 47 -45 66 9 15 21 19 46 17 33 -3 33 -3 62 76 17 44 27 86 25 93 -3 7 -17 18 -31 23 -14 5 -25 14 -25 19 0 10 28 41 36 41 3 0 46 -14 95 -31z m334 -113 c49 -21 69 -65 62 -142 -9 -117 -79 -204 -164 -204 -90 0 -144 77 -123 174 31 144 123 214 225 172z m366 -133 c66 -39 74 -136 21 -243 -29 -57 -84 -99 -129 -100 -42 0 -103 32 -118 61 -45 86 25 276 108 292 49 10 90 6 118 -10z m333 -117 c18 -7 43 -26 55 -42 20 -25 22 -38 19 -91 -6 -90 -49 -171 -108 -201 -32 -16 -54 -21 -75 -16 -118 25 -144 119 -74 262 26 53 38 67 73 83 49 22 67 23 110 5z m-1170 -130 c132 -55 45 -346 -103 -346 -51 0 -102 35 -120 84 -13 35 -13 46 2 105 38 142 119 200 221 157z m365 -132 c62 -37 71 -138 21 -240 -25 -51 -38 -66 -73 -83 -53 -26 -70 -26 -123 -2 -52 24 -69 61 -61 139 6 74 47 156 90 182 39 24 109 26 146 4z m312 -115 c81 -29 89 -34 83 -53 -10 -33 -19 -38 -47 -27 -32 12 -30 16 -82 -134 -22 -60 -46 -115 -54 -121 -11 -9 -27 -2 -74 35 l-59 46 27 23 c22 19 30 21 42 10 21 -17 35 5 67 98 26 78 26 78 -22 99 -21 9 -22 11 -7 33 9 12 21 22 26 22 6 0 50 -14 100 -31z m291 -104 c93 -33 97 -35 87 -64 -8 -20 -14 -22 -39 -18 -18 4 -32 2 -37 -6 -4 -7 -26 -64 -49 -127 -22 -62 -48 -118 -56 -123 -11 -7 -29 1 -69 33 -30 23 -55 46 -57 50 -2 5 8 16 22 25 19 13 29 14 45 5 24 -12 23 -13 67 113 l23 68 -25 9 c-14 6 -29 10 -34 10 -10 0 -3 28 13 48 6 7 17 10 26 6 9 -3 46 -17 83 -29z"/>
 <path d="M1145 1806 c-27 -40 -55 -124 -55 -161 0 -26 6 -39 25 -51 24 -16 27 -15 45 1 25 22 56 90 64 140 6 33 3 46 -14 68 -27 33 -45 34 -65 3z"/>
 <path d="M977 1322 c-26 -29 -60 -113 -61 -153 -1 -40 17 -69 44 -69 59 0 118 182 72 223 -24 22 -35 21 -55 -1z"/>
 <path d="M1331 1197 c-28 -31 -61 -117 -61 -161 0 -42 33 -75 58 -60 30 19 60 73 73 130 11 50 11 57 -7 81 -27 36 -36 37 -63 10z"/>
 <path d="M1681 1064 c-23 -30 -61 -125 -61 -155 0 -11 12 -31 26 -45 25 -26 26 -26 46 -8 53 49 83 164 54 209 -21 32 -39 32 -65 -1z"/>
 <path d="M492 928 c-11 -18 -28 -59 -38 -91 -16 -53 -17 -61 -3 -85 28 -51 65 -39 100 31 30 58 36 132 14 157 -26 29 -51 25 -73 -12z"/>
 <path d="M862 827 c-26 -31 -62 -125 -62 -163 0 -40 22 -74 48 -74 34 0 100 154 85 198 -16 45 -51 64 -71 39z"/>
 </g>

</svg>